<mxfile host="app.diagrams.net" agent="Mozilla/5.0 (Windows NT 10.0; Win64; x64) AppleWebKit/537.36 (KHTML, like Gecko) Chrome/139.0.0.0 Safari/537.36" version="28.1.0">
  <diagram name="Page-1" id="t80fm8ObCmEO_eOv-5Ec">
    <mxGraphModel dx="2564" dy="1002" grid="1" gridSize="10" guides="1" tooltips="1" connect="1" arrows="1" fold="1" page="1" pageScale="1" pageWidth="827" pageHeight="1169" math="0" shadow="0">
      <root>
        <mxCell id="0" />
        <mxCell id="1" parent="0" />
        <mxCell id="T-_3s-3QJnK2Uuod6LDO-18" style="edgeStyle=orthogonalEdgeStyle;rounded=0;orthogonalLoop=1;jettySize=auto;html=1;exitX=0.5;exitY=1;exitDx=0;exitDy=0;entryX=0.5;entryY=0;entryDx=0;entryDy=0;" edge="1" parent="1" source="T-_3s-3QJnK2Uuod6LDO-2" target="T-_3s-3QJnK2Uuod6LDO-3">
          <mxGeometry relative="1" as="geometry" />
        </mxCell>
        <mxCell id="T-_3s-3QJnK2Uuod6LDO-2" value="&lt;font style=&quot;font-size: 18px;&quot;&gt;&lt;b&gt;Main&amp;nbsp;&lt;/b&gt;&lt;/font&gt;" style="rounded=0;whiteSpace=wrap;html=1;" vertex="1" parent="1">
          <mxGeometry x="284" y="240" width="120" height="60" as="geometry" />
        </mxCell>
        <mxCell id="T-_3s-3QJnK2Uuod6LDO-19" style="edgeStyle=orthogonalEdgeStyle;rounded=0;orthogonalLoop=1;jettySize=auto;html=1;exitX=0.5;exitY=1;exitDx=0;exitDy=0;entryX=0.5;entryY=0;entryDx=0;entryDy=0;" edge="1" parent="1" source="T-_3s-3QJnK2Uuod6LDO-3" target="T-_3s-3QJnK2Uuod6LDO-4">
          <mxGeometry relative="1" as="geometry" />
        </mxCell>
        <mxCell id="T-_3s-3QJnK2Uuod6LDO-3" value="&lt;font style=&quot;font-size: 20px;&quot;&gt;&lt;b&gt;view&lt;/b&gt;&lt;/font&gt;" style="rounded=0;whiteSpace=wrap;html=1;" vertex="1" parent="1">
          <mxGeometry x="284" y="370" width="120" height="60" as="geometry" />
        </mxCell>
        <mxCell id="T-_3s-3QJnK2Uuod6LDO-4" value="&lt;span style=&quot;font-size: 18px;&quot;&gt;&lt;b&gt;Controller&amp;nbsp;&lt;/b&gt;&lt;/span&gt;" style="rounded=0;whiteSpace=wrap;html=1;" vertex="1" parent="1">
          <mxGeometry x="284" y="494.5" width="120" height="60" as="geometry" />
        </mxCell>
        <mxCell id="T-_3s-3QJnK2Uuod6LDO-28" style="edgeStyle=orthogonalEdgeStyle;rounded=0;orthogonalLoop=1;jettySize=auto;html=1;exitX=0.5;exitY=0;exitDx=0;exitDy=0;entryX=0.5;entryY=1;entryDx=0;entryDy=0;" edge="1" parent="1" source="T-_3s-3QJnK2Uuod6LDO-5" target="T-_3s-3QJnK2Uuod6LDO-4">
          <mxGeometry relative="1" as="geometry">
            <Array as="points">
              <mxPoint x="344" y="615" />
            </Array>
          </mxGeometry>
        </mxCell>
        <mxCell id="T-_3s-3QJnK2Uuod6LDO-5" value="&lt;span style=&quot;font-size: 18px;&quot;&gt;&lt;b&gt;&amp;lt;abstract&amp;gt;&lt;br&gt;GameElement&lt;/b&gt;&lt;/span&gt;" style="rounded=0;whiteSpace=wrap;html=1;" vertex="1" parent="1">
          <mxGeometry x="274" y="614.5" width="136" height="70" as="geometry" />
        </mxCell>
        <mxCell id="T-_3s-3QJnK2Uuod6LDO-36" style="edgeStyle=orthogonalEdgeStyle;rounded=0;orthogonalLoop=1;jettySize=auto;html=1;entryX=0;entryY=0.5;entryDx=0;entryDy=0;" edge="1" parent="1" source="T-_3s-3QJnK2Uuod6LDO-7" target="T-_3s-3QJnK2Uuod6LDO-5">
          <mxGeometry relative="1" as="geometry" />
        </mxCell>
        <mxCell id="T-_3s-3QJnK2Uuod6LDO-7" value="&lt;span style=&quot;font-size: 18px;&quot;&gt;&lt;b&gt;City&lt;/b&gt;&lt;/span&gt;" style="rounded=0;whiteSpace=wrap;html=1;" vertex="1" parent="1">
          <mxGeometry x="-60" y="470" width="120" height="60" as="geometry" />
        </mxCell>
        <mxCell id="T-_3s-3QJnK2Uuod6LDO-30" style="edgeStyle=orthogonalEdgeStyle;rounded=0;orthogonalLoop=1;jettySize=auto;html=1;exitX=0;exitY=0.5;exitDx=0;exitDy=0;" edge="1" parent="1" source="T-_3s-3QJnK2Uuod6LDO-8">
          <mxGeometry relative="1" as="geometry">
            <mxPoint x="410" y="646" as="targetPoint" />
            <Array as="points">
              <mxPoint x="510" y="646" />
            </Array>
          </mxGeometry>
        </mxCell>
        <mxCell id="T-_3s-3QJnK2Uuod6LDO-8" value="&lt;span style=&quot;font-size: 18px;&quot;&gt;&lt;b&gt;&amp;lt;abstract&amp;gt;&lt;br&gt;Resource&lt;/b&gt;&lt;/span&gt;" style="rounded=0;whiteSpace=wrap;html=1;" vertex="1" parent="1">
          <mxGeometry x="610" y="615" width="120" height="60" as="geometry" />
        </mxCell>
        <mxCell id="T-_3s-3QJnK2Uuod6LDO-31" style="edgeStyle=orthogonalEdgeStyle;rounded=0;orthogonalLoop=1;jettySize=auto;html=1;entryX=0.5;entryY=1;entryDx=0;entryDy=0;" edge="1" parent="1" source="T-_3s-3QJnK2Uuod6LDO-9" target="T-_3s-3QJnK2Uuod6LDO-8">
          <mxGeometry relative="1" as="geometry" />
        </mxCell>
        <mxCell id="T-_3s-3QJnK2Uuod6LDO-9" value="&lt;span style=&quot;font-size: 18px;&quot;&gt;&lt;b&gt;Stone&lt;/b&gt;&lt;/span&gt;" style="rounded=0;whiteSpace=wrap;html=1;" vertex="1" parent="1">
          <mxGeometry x="500" y="790" width="120" height="60" as="geometry" />
        </mxCell>
        <mxCell id="T-_3s-3QJnK2Uuod6LDO-33" style="edgeStyle=orthogonalEdgeStyle;rounded=0;orthogonalLoop=1;jettySize=auto;html=1;entryX=0.5;entryY=1;entryDx=0;entryDy=0;" edge="1" parent="1" source="T-_3s-3QJnK2Uuod6LDO-10" target="T-_3s-3QJnK2Uuod6LDO-8">
          <mxGeometry relative="1" as="geometry" />
        </mxCell>
        <mxCell id="T-_3s-3QJnK2Uuod6LDO-10" value="&lt;span style=&quot;font-size: 18px;&quot;&gt;&lt;b&gt;Tree&lt;/b&gt;&lt;/span&gt;" style="rounded=0;whiteSpace=wrap;html=1;" vertex="1" parent="1">
          <mxGeometry x="720" y="790" width="120" height="60" as="geometry" />
        </mxCell>
        <mxCell id="T-_3s-3QJnK2Uuod6LDO-11" value="&lt;span style=&quot;font-size: 18px;&quot;&gt;&lt;b&gt;&amp;lt;abstract&amp;gt;&lt;br&gt;Unit&lt;/b&gt;&lt;/span&gt;" style="rounded=0;whiteSpace=wrap;html=1;" vertex="1" parent="1">
          <mxGeometry x="277" y="780" width="120" height="60" as="geometry" />
        </mxCell>
        <mxCell id="T-_3s-3QJnK2Uuod6LDO-25" style="edgeStyle=orthogonalEdgeStyle;rounded=0;orthogonalLoop=1;jettySize=auto;html=1;entryX=0.5;entryY=1;entryDx=0;entryDy=0;" edge="1" parent="1" source="T-_3s-3QJnK2Uuod6LDO-12" target="T-_3s-3QJnK2Uuod6LDO-11">
          <mxGeometry relative="1" as="geometry">
            <Array as="points">
              <mxPoint x="140" y="945.5" />
              <mxPoint x="337" y="945.5" />
            </Array>
          </mxGeometry>
        </mxCell>
        <mxCell id="T-_3s-3QJnK2Uuod6LDO-12" value="&lt;span style=&quot;font-size: 18px;&quot;&gt;&lt;b&gt;Assassin&lt;/b&gt;&lt;/span&gt;" style="rounded=0;whiteSpace=wrap;html=1;" vertex="1" parent="1">
          <mxGeometry x="80" y="1015.5" width="120" height="60" as="geometry" />
        </mxCell>
        <mxCell id="T-_3s-3QJnK2Uuod6LDO-24" style="edgeStyle=orthogonalEdgeStyle;rounded=0;orthogonalLoop=1;jettySize=auto;html=1;exitX=0.5;exitY=0;exitDx=0;exitDy=0;entryX=0.5;entryY=1;entryDx=0;entryDy=0;" edge="1" parent="1" source="T-_3s-3QJnK2Uuod6LDO-15" target="T-_3s-3QJnK2Uuod6LDO-11">
          <mxGeometry relative="1" as="geometry" />
        </mxCell>
        <mxCell id="T-_3s-3QJnK2Uuod6LDO-15" value="&lt;span style=&quot;font-size: 18px;&quot;&gt;&lt;b&gt;Collecter&amp;nbsp;&lt;/b&gt;&lt;/span&gt;" style="rounded=0;whiteSpace=wrap;html=1;" vertex="1" parent="1">
          <mxGeometry x="277" y="1015.5" width="120" height="60" as="geometry" />
        </mxCell>
        <mxCell id="T-_3s-3QJnK2Uuod6LDO-26" style="edgeStyle=orthogonalEdgeStyle;rounded=0;orthogonalLoop=1;jettySize=auto;html=1;entryX=0.5;entryY=1;entryDx=0;entryDy=0;" edge="1" parent="1" source="T-_3s-3QJnK2Uuod6LDO-16" target="T-_3s-3QJnK2Uuod6LDO-11">
          <mxGeometry relative="1" as="geometry">
            <Array as="points">
              <mxPoint x="560" y="945.5" />
              <mxPoint x="337" y="945.5" />
            </Array>
          </mxGeometry>
        </mxCell>
        <mxCell id="T-_3s-3QJnK2Uuod6LDO-16" value="&lt;span style=&quot;font-size: 18px;&quot;&gt;&lt;b&gt;Sedeer&lt;/b&gt;&lt;/span&gt;" style="rounded=0;whiteSpace=wrap;html=1;" vertex="1" parent="1">
          <mxGeometry x="500" y="1015.5" width="120" height="60" as="geometry" />
        </mxCell>
        <mxCell id="T-_3s-3QJnK2Uuod6LDO-39" style="edgeStyle=orthogonalEdgeStyle;rounded=0;orthogonalLoop=1;jettySize=auto;html=1;entryX=0;entryY=0.5;entryDx=0;entryDy=0;" edge="1" parent="1" source="T-_3s-3QJnK2Uuod6LDO-17" target="T-_3s-3QJnK2Uuod6LDO-5">
          <mxGeometry relative="1" as="geometry" />
        </mxCell>
        <mxCell id="T-_3s-3QJnK2Uuod6LDO-17" value="&lt;span style=&quot;font-size: 18px;&quot;&gt;&lt;b&gt;MagicStone&lt;/b&gt;&lt;/span&gt;" style="rounded=0;whiteSpace=wrap;html=1;" vertex="1" parent="1">
          <mxGeometry x="-60" y="745" width="120" height="60" as="geometry" />
        </mxCell>
        <mxCell id="T-_3s-3QJnK2Uuod6LDO-38" style="edgeStyle=orthogonalEdgeStyle;rounded=0;orthogonalLoop=1;jettySize=auto;html=1;entryX=0;entryY=0.5;entryDx=0;entryDy=0;" edge="1" parent="1" source="T-_3s-3QJnK2Uuod6LDO-34" target="T-_3s-3QJnK2Uuod6LDO-5">
          <mxGeometry relative="1" as="geometry">
            <Array as="points">
              <mxPoint x="167" y="650" />
            </Array>
          </mxGeometry>
        </mxCell>
        <mxCell id="T-_3s-3QJnK2Uuod6LDO-34" value="&lt;span style=&quot;font-size: 18px;&quot;&gt;&lt;b&gt;Flag&lt;/b&gt;&lt;/span&gt;" style="rounded=0;whiteSpace=wrap;html=1;" vertex="1" parent="1">
          <mxGeometry x="-60" y="625" width="120" height="60" as="geometry" />
        </mxCell>
        <mxCell id="T-_3s-3QJnK2Uuod6LDO-42" style="edgeStyle=orthogonalEdgeStyle;rounded=0;orthogonalLoop=1;jettySize=auto;html=1;entryX=0.466;entryY=1.04;entryDx=0;entryDy=0;entryPerimeter=0;" edge="1" parent="1" source="T-_3s-3QJnK2Uuod6LDO-11" target="T-_3s-3QJnK2Uuod6LDO-5">
          <mxGeometry relative="1" as="geometry" />
        </mxCell>
      </root>
    </mxGraphModel>
  </diagram>
</mxfile>
